<svg xmlns="http://www.w3.org/2000/svg" width="1200" height="630" viewBox="0 0 1200 630" role="img" aria-label="bring your own model — free software for the llm era">
  <title>bring your own model</title>
  <defs>
    <radialGradient id="bloom" cx="0.5" cy="0.5" r="0.5">
      <stop offset="0%" stop-color="#6E83A0" stop-opacity="0.42"/>
      <stop offset="68%" stop-color="#6E83A0" stop-opacity="0"/>
    </radialGradient>
    <radialGradient id="bloom2" cx="0.5" cy="0.5" r="0.5">
      <stop offset="0%" stop-color="#C7D0DE" stop-opacity="0.7"/>
      <stop offset="70%" stop-color="#C7D0DE" stop-opacity="0"/>
    </radialGradient>
  </defs>

  <rect width="1200" height="630" fill="#E8EBF0"/>
  <rect x="760" y="-120" width="640" height="640" fill="url(#bloom)"/>
  <rect x="-160" y="220" width="620" height="620" fill="url(#bloom2)"/>

  <!-- plug → socket glyph (monochrome) -->
  <g transform="translate(96,86) scale(6.6)" fill="#1B2028">
    <rect x="1.5" y="7" width="7" height="10" rx="2.4"/>
    <rect x="0" y="10.6" width="2" height="2.8" rx="1"/>
    <rect x="8.4" y="8.6" width="3.8" height="1.7" rx="0.85"/>
    <rect x="8.4" y="13.7" width="3.8" height="1.7" rx="0.85"/>
    <rect x="14" y="4.2" width="8.5" height="15.6" rx="3"/>
    <rect x="16.7" y="7.6" width="2" height="3.6" rx="1" fill="#E8EBF0"/>
    <rect x="16.7" y="12.8" width="2" height="3.6" rx="1" fill="#E8EBF0"/>
  </g>
  <text x="290" y="195" font-family="Archivo, 'Helvetica Neue', system-ui, sans-serif" font-size="40" font-weight="700" letter-spacing="6" fill="#4D6483" text-rendering="geometricPrecision">byom</text>

  <text x="96" y="370" font-family="Archivo, 'Helvetica Neue', system-ui, sans-serif" font-size="96" font-weight="700" letter-spacing="-3" fill="#1B2028" text-rendering="geometricPrecision">bring your own model</text>

  <text x="98" y="452" font-family="Archivo, 'Helvetica Neue', system-ui, sans-serif" font-size="33" font-weight="500" fill="#424A57" text-rendering="geometricPrecision">free software for the llm era. the app is free —</text>
  <text x="98" y="500" font-family="Archivo, 'Helvetica Neue', system-ui, sans-serif" font-size="33" font-weight="500" fill="#424A57" text-rendering="geometricPrecision">you bring your own model for the parts that need it.</text>

  <text x="98" y="576" font-family="'JetBrains Mono', ui-monospace, monospace" font-size="20" font-weight="500" letter-spacing="2" fill="#6B7488" text-rendering="geometricPrecision">FOLLOWS THE PATTERN + SECURITY INVARIANTS — NOT PROOF OF SAFETY</text>

  <!-- phyllotaxis seed mark, bottom-right -->
  <g transform="translate(1020,470) scale(3.2)" fill="#6B7488" opacity="0.55">
    <circle cx="21" cy="21" r="2.5"/>
    <circle cx="14" cy="16" r="2"/>
    <circle cx="28" cy="16" r="2"/>
    <circle cx="16" cy="28" r="2"/>
    <circle cx="26" cy="28" r="2"/>
    <circle cx="21" cy="12" r="1.5"/>
    <circle cx="21" cy="30" r="1.5"/>
    <circle cx="12" cy="22" r="1.5"/>
    <circle cx="30" cy="22" r="1.5"/>
  </g>

  <rect x="0" y="620" width="1200" height="10" fill="#4D6483"/>
</svg>
